<!--
 *     Copyright (C) 2023 Dynamic Solutions
 *
 *     Licensed under the Apache License, Version 2.0 (the "License");
 *     you may not use this file except in compliance with the License.
 *     You may obtain a copy of the License at
 *
 *         http://www.apache.org/licenses/LICENSE-2.0
 *
 *     Unless required by applicable law or agreed to in writing, software
 *     distributed under the License is distributed on an "AS IS" BASIS,
 *     WITHOUT WARRANTIES OR CONDITIONS OF ANY KIND, either express or implied.
 *     See the License for the specific language governing permissions and
 *     limitations under the License.
 * -->
<svg width="414" height="506" viewBox="0 0 414 506" fill="none" xmlns="http://www.w3.org/2000/svg">
  <path d="M91.3025 505C91.3025 505 72.4725 265.528 207.003 130.998C341.534 -3.5332 581 15.3027 581 15.3027" stroke="#0053FF"/>
  <path d="M48.2521 461.95C48.2521 461.95 72.4725 265.528 207.003 130.998C341.534 -3.53317 537.95 -27.7477 537.95 -27.7477" stroke="#0053FF"/>
  <path d="M5.20173 418.9C5.20173 418.9 72.4725 265.528 207.003 130.998C341.534 -3.53323 494.9 -70.7981 494.9 -70.7981" stroke="#0053FF"/>
  <path d="M451.803 -113.879L-37.8672 375.792" stroke="#0053FF"/>
  <path d="M-80.899 332.799C-80.899 332.799 72.4725 265.528 207.003 130.998C341.534 -3.53317 408.799 -156.899 408.799 -156.899" stroke="#0053FF"/>
  <path d="M-123.949 289.749C-123.949 289.749 72.4725 265.528 207.003 130.998C341.534 -3.53317 365.748 -199.949 365.748 -199.949" stroke="#0053FF"/>
  <path d="M-167 246.698C-167 246.698 72.4725 265.528 207.003 130.998C341.534 -3.53317 322.698 -242.999 322.698 -242.999" stroke="#0053FF"/>
  <circle opacity="0.3" cx="207" cy="131" r="9" fill="#99BAFF">
    <animate id="mScale" attributeName="r" values="9px;28px" begin="0s;mScale.end+2s" dur="0.5s"/>
    <animate id="mOpacity" attributeName="opacity" values="1;0" begin="0s;mOpacity.end+2s" dur="0.5s"/>
  </circle>
  <circle cx="207" cy="131" r="8" fill="#0053FF"/>
</svg>
